<svg
    data-name="Layer 1"
    viewBox="0 0 513.21 223.53"
    xmlns="http://www.w3.org/2000/svg"
  >
    <defs>
      <style>
        .cls-1 {
          fill: url(#b);
        }
        .cls-2,
        .cls-3 {
          fill: {{ fill }};
        }
        .cls-3 {
          font-size: 18.33px;
          font-family: GillSans-SemiBoldItalic, Gill Sans;
          font-weight: 600;
          font-style: italic;
        }
      </style>
      <linearGradient
        id="b"
        x1="31.68"
        x2="103.91"
        y1="72.7"
        y2="144.93"
        gradientUnits="userSpaceOnUse"
      >
        <stop stop-color="#2fffd7" offset="0" />
        <stop stop-color="#4ee5e0" offset=".13" />
        <stop stop-color="#74c4eb" offset=".31" />
        <stop stop-color="#92abf4" offset=".49" />
        <stop stop-color="#a799fa" offset=".67" />
        <stop stop-color="#b48efe" offset=".84" />
        <stop stop-color="#b88aff" offset="1" />
      </linearGradient>
    </defs>
    <title>Serpico logo</title>
    <path
      class="cls-1"
      d="M116.83,99.69h0c-19.3-9.26-18.78-29.37-18.26-34.86.06-.42.11-.83.15-1.25,0-.09,0-.17,0-.18h0A23.2,23.2,0,1,0,67.28,83.19a14.15,14.15,0,0,0,3.14.78c3.87.51,15.51,2.64,22.16,10a19.41,19.41,0,0,1,5,13.1,11.21,11.21,0,0,1-.47,3.3v0c-.11.37-.2.75-.28,1.12a11.86,11.86,0,0,1-2.18,4.85,28.64,28.64,0,0,1-18.47,10.54,36.24,36.24,0,0,1-3.63.41,12,12,0,0,1-4.52-.66l-1-.31a26.25,26.25,0,1,0,19,23.39,15.34,15.34,0,0,1,.33-4.63l.06-.25c1.22-5,3.61-8.79,7.15-11.35a21.53,21.53,0,0,1,11.14-3.72,20.7,20.7,0,0,1,4.78.29h0a15.87,15.87,0,0,0,17.41-10.2A15.71,15.71,0,0,0,116.83,99.69Z"
    />
    <polygon
      class="cls-2"
      points="361.71 98.14 376.75 113.18 376.77 89.3 361.71 89.24"
    />
    <polygon
      class="cls-2"
      points="361.71 139.95 376.72 139.95 376.75 120.63 361.71 105.59"
    />
    <path
      class="cls-2"
      d="M180.86,108c-5.23-1.07-8.25-2.06-8.25-4,0-2.38,3.43-3.22,6.36-3.22,5.95,0,11.08,2.64,13.53,5.25l1.23,1.33L200.28,96l-.89-.71a32.09,32.09,0,0,0-20.52-7c-14.71,0-21.41,8.68-21.41,16.75,0,12.7,11.68,15,20.21,16.6l.13,0c5.55,1.11,8.76,2.2,8.76,4.47,0,3-3.74,3.63-6.88,3.63a26.52,26.52,0,0,1-16-6.33l-1.2-1.12-7,11.36.81.75c5.41,5,13.94,8,22.82,8,13.68,0,22.53-6.7,22.53-17.06C201.61,112,189.12,109.61,180.86,108Z"
    />
    <path
      class="cls-2"
      d="m232 88.32c-15.22 0-26.69 11.6-26.69 27 0 15.95 11.31 27.1 27.5 27.1 8.46 0 16.14-2.61 21.09-7.15l0.85-0.78-7.23-10.59-1.13 1.1c-2.73 2.64-7.73 4.49-12.15 4.49-6.36 0-11.1-3.36-12.48-8.68h36.13v-4.18c0-16.63-10.64-28.31-25.89-28.31zm-10.46 21.09a10.3 10.3 0 0 1 10.46 -8.17c6.67 0 9.76 4.13 10.55 8.17z"
    />
    <path
      class="cls-2"
      d="M280.1,94.19V89.53H264.54v51.66H280.1V107.94c1.95-2.47,6.82-4.58,10.73-4.58a15.77,15.77,0,0,1,3.26.28l1.63.36V88.42h-1.34A21.93,21.93,0,0,0,280.1,94.19Z"
    />
    <path
      class="cls-2"
      d="m330.38 88.32a20.13 20.13 0 0 0 -13.78 5.32v-4.11h-15.55v56.86l15.55 15.31v-24.7a20 20 0 0 0 13.78 5.41c14 0 23-10.64 23-27.1s-9.01-26.99-23-26.99zm7 27c0 7.75-4.43 13-11 13a13.5 13.5 0 0 1 -9.72 -4.68v-16.52a13.31 13.31 0 0 1 9.72 -4.67c6.54 0 10.97 5.17 10.97 12.86z"
    />
    <path
      class="cls-2"
      d="M413,100.76a10.8,10.8,0,0,1,9.24,4.7l.88,1.26,10.41-9.65-.68-1c-2.52-3.54-8.53-9.48-20.46-9.48-15.82,0-27.3,11.35-27.3,27s11.48,27.1,27.3,27.1c11.93,0,17.94-5.95,20.46-9.49l.68-1-10.39-9.64-.89,1.23a11,11,0,0,1-9.25,4.72c-7.15,0-11.95-5.21-11.95-13S405.88,100.76,413,100.76Z"
    />
    <path
      class="cls-2"
      d="m462.92 86.63c-15.76 0-27.2 11.35-27.2 27s11.44 27.1 27.2 27.1 27.3-11.4 27.3-27.1-11.48-27-27.3-27zm11.24 27c0 6.24-3.52 13-11.24 13s-11.13-6.51-11.13-13c0-8.88 5.59-12.86 11.13-12.86 7.72-0.01 11.24 6.66 11.24 12.85z"
    />
    <path
      class="cls-2"
      d="M422.62,167.43v3.22a13.75,13.75,0,0,1-4.79.9,7.87,7.87,0,0,1-8.43-8.4,8.72,8.72,0,0,1,2.23-6.24,7.67,7.67,0,0,1,5.86-2.38,10.26,10.26,0,0,1,2.28.23,15.75,15.75,0,0,1,2.49.9v3.48a8.59,8.59,0,0,0-4.57-1.57,4.65,4.65,0,0,0-3.6,1.54,5.57,5.57,0,0,0-1.41,3.93,5.34,5.34,0,0,0,1.52,4,5.65,5.65,0,0,0,4.11,1.48A10.71,10.71,0,0,0,422.62,167.43Z"
    />
    <path
      class="cls-2"
      d="M428.83,154.86v3.76l.18-.28q2.34-3.81,4.71-3.82a5.79,5.79,0,0,1,3.83,1.86l-1.71,2.86a4.83,4.83,0,0,0-3.14-1.61,3.35,3.35,0,0,0-2.72,1.5,5.68,5.68,0,0,0-1.15,3.55v8.58h-3.27v-16.4Z"
    />
    <path
      class="cls-2"
      d="M468.08,171.27v-2.09a7.57,7.57,0,0,1-2.37,1.75,6.2,6.2,0,0,1-2.64.62,5.51,5.51,0,0,1-2.86-.77,5,5,0,0,1-2-2.11,10.32,10.32,0,0,1-.67-4.41v-9.4h3.24v9.36a6.48,6.48,0,0,0,.74,3.61,3,3,0,0,0,2.6,1,4.76,4.76,0,0,0,3.94-2.27V154.86h3.25v16.41Z"
    />
    <path
      class="cls-2"
      d="M485.4,147.78l3.27-1.43v24.92h-6.94a7.64,7.64,0,0,1-5.81-2.3,8.68,8.68,0,0,1-2.16-6.18,8.21,8.21,0,0,1,2.27-6,7.83,7.83,0,0,1,5.81-2.34,10.64,10.64,0,0,1,3.57.7Zm0,20.7V158.09a6.65,6.65,0,0,0-3.06-.78,4.93,4.93,0,0,0-3.86,1.59,6.06,6.06,0,0,0-1.43,4.28,5.61,5.61,0,0,0,1.24,3.91,3.92,3.92,0,0,0,1.59,1.11,10.83,10.83,0,0,0,3,.28Z"
    />
    <path
      class="cls-2"
      d="M445.65,168.44a5.21,5.21,0,0,1-2.87-1.41,5.09,5.09,0,0,1-1.54-3.84,5.39,5.39,0,0,1,1.5-3.91,4.93,4.93,0,0,1,2.91-1.46v-2.94a8.46,8.46,0,0,0-5.18,2.34,8.41,8.41,0,0,0,0,12,8.43,8.43,0,0,0,5.21,2.34Z"
    />
    <path
      class="cls-2"
      d="M453,157.24a8.34,8.34,0,0,0-4.94-2.33v3a5.32,5.32,0,0,1,2.53,1.37,5.33,5.33,0,0,1-2.53,9.11v3.06a8.57,8.57,0,0,0,4.9-2.24,7.73,7.73,0,0,0,2.52-5.9A8.13,8.13,0,0,0,453,157.24Z"
    />
    <path
      class="cls-2"
      d="M422.62,167.43v3.22a13.75,13.75,0,0,1-4.79.9,7.87,7.87,0,0,1-8.43-8.4,8.72,8.72,0,0,1,2.23-6.24,7.67,7.67,0,0,1,5.86-2.38,10.26,10.26,0,0,1,2.28.23,15.75,15.75,0,0,1,2.49.9v3.48a8.59,8.59,0,0,0-4.57-1.57,4.65,4.65,0,0,0-3.6,1.54,5.57,5.57,0,0,0-1.41,3.93,5.34,5.34,0,0,0,1.52,4,5.65,5.65,0,0,0,4.11,1.48A10.71,10.71,0,0,0,422.62,167.43Z"
    />
    <path
      class="cls-2"
      d="M428.83,154.86v3.76l.18-.28q2.34-3.81,4.71-3.82a5.79,5.79,0,0,1,3.83,1.86l-1.71,2.86a4.83,4.83,0,0,0-3.14-1.61,3.35,3.35,0,0,0-2.72,1.5,5.68,5.68,0,0,0-1.15,3.55v8.58h-3.27v-16.4Z"
    />
    <path
      class="cls-2"
      d="M445.65,168.44a5.21,5.21,0,0,1-2.87-1.41,5.09,5.09,0,0,1-1.54-3.84,5.39,5.39,0,0,1,1.5-3.91,4.93,4.93,0,0,1,2.91-1.46v-2.94a8.46,8.46,0,0,0-5.18,2.34,8.41,8.41,0,0,0,0,12,8.43,8.43,0,0,0,5.21,2.34Z"
    />
    <path
      class="cls-2"
      d="M453,157.24a8.34,8.34,0,0,0-4.94-2.33v3a5.32,5.32,0,0,1,2.53,1.37,5.33,5.33,0,0,1-2.53,9.11v3.06a8.57,8.57,0,0,0,4.9-2.24,7.73,7.73,0,0,0,2.52-5.9A8.13,8.13,0,0,0,453,157.24Z"
    />
    <path
      class="cls-2"
      d="M468.08,171.27v-2.09a7.57,7.57,0,0,1-2.37,1.75,6.2,6.2,0,0,1-2.64.62,5.51,5.51,0,0,1-2.86-.77,5,5,0,0,1-2-2.11,10.32,10.32,0,0,1-.67-4.41v-9.4h3.24v9.36a6.48,6.48,0,0,0,.74,3.61,3,3,0,0,0,2.6,1,4.76,4.76,0,0,0,3.94-2.27V154.86h3.25v16.41Z"
    />
    <path
      class="cls-2"
      d="M485.4,147.78l3.27-1.43v24.92h-6.94a7.64,7.64,0,0,1-5.81-2.3,8.68,8.68,0,0,1-2.16-6.18,8.21,8.21,0,0,1,2.27-6,7.83,7.83,0,0,1,5.81-2.34,10.64,10.64,0,0,1,3.57.7Zm0,20.7V158.09a6.65,6.65,0,0,0-3.06-.78,4.93,4.93,0,0,0-3.86,1.59,6.06,6.06,0,0,0-1.43,4.28,5.61,5.61,0,0,0,1.24,3.91,3.92,3.92,0,0,0,1.59,1.11,10.83,10.83,0,0,0,3,.28Z"
    />
    <text class="cls-3" transform="translate(386.42 171.26)">by</text>
  </svg>
